<?xml version="1.0" standalone="no"?>
<!DOCTYPE svg PUBLIC "-//W3C//DTD SVG 20010904//EN"
 "http://www.w3.org/TR/2001/REC-SVG-20010904/DTD/svg10.dtd">
<svg version="1.0" xmlns="http://www.w3.org/2000/svg"
 width="640.000000pt" height="640.000000pt" viewBox="0 0 640.000000 640.000000"
 preserveAspectRatio="xMidYMid meet">

<g transform="translate(0.000000,640.000000) scale(0.100000,-0.100000)"
fill="#ffffff" stroke="none">
<path d="M3010 5860 c-481 -34 -962 -198 -1350 -460 -190 -128 -430 -349 -572
-524 -364 -452 -549 -964 -551 -1526 0 -102 5 -230 12 -285 64 -521 307 -1015
697 -1417 l84 -87 0 -595 c0 -328 2 -596 5 -596 3 0 254 125 558 277 l554 276
169 -41 c259 -64 357 -76 599 -77 233 0 350 12 565 57 1061 222 1888 1059
2055 2078 39 240 39 552 -1 790 -85 513 -335 984 -721 1361 -177 172 -322 284
-518 400 -463 272 -1041 407 -1585 369z m460 -544 c504 -63 936 -269 1278
-609 296 -293 486 -652 558 -1052 22 -125 30 -400 15 -533 -68 -592 -417
-1132 -948 -1460 -247 -154 -556 -264 -858 -307 -82 -12 -184 -17 -320 -17
-266 0 -414 23 -700 108 l-120 36 -247 -121 c-137 -67 -250 -121 -253 -121 -3
0 -5 118 -5 263 l-1 262 -111 100 c-214 193 -360 378 -477 605 -144 280 -210
550 -211 856 0 517 187 974 559 1356 289 298 657 501 1081 598 217 49 535 64
760 36z"/>
<path d="M2928 3971 c-7 -10 -92 -101 -188 -202 -96 -101 -215 -227 -264 -279
-50 -52 -131 -138 -180 -190 -50 -52 -125 -131 -166 -175 -41 -44 -152 -161
-246 -260 -94 -99 -184 -195 -200 -214 -33 -40 -42 -44 131 54 61 34 130 73
155 87 45 25 417 233 692 388 81 45 151 80 156 78 5 -1 119 -120 253 -263 134
-143 274 -291 311 -330 l68 -70 52 55 c93 97 210 224 643 696 5 6 64 69 130
140 66 71 145 156 175 189 52 56 89 96 220 238 29 31 51 59 49 61 -2 2 -96
-48 -209 -111 -113 -63 -347 -194 -520 -290 -173 -97 -333 -186 -355 -199
l-41 -24 -319 320 c-176 176 -323 320 -327 320 -4 0 -13 -8 -20 -19z"/>
</g>
</svg>
